<svg version="1.1" id="Layer_1" xmlns="http://www.w3.org/2000/svg" xmlns:xlink="http://www.w3.org/1999/xlink" x="0px" y="0px"
	 width="100" height="100" viewBox="0 0 96 96" enable-background="new 0 0 96 96" xml:space="preserve">
<path fill="#000000" opacity="1.000000" stroke="none" 
	d="
M48.300575,96.660172 
	C33.183762,97.000000 18.367203,96.953529 3.551649,97.054382 
	C1.527749,97.068161 0.927137,96.791092 0.934344,94.556824 
	C1.032064,64.258766 1.047670,33.960072 0.914883,3.662277 
	C0.903531,1.072196 1.712685,0.948438 3.831865,0.953261 
	C33.963612,1.021839 64.095657,1.030914 94.227280,0.938293 
	C96.510910,0.931273 97.082237,1.295877 97.073227,3.721407 
	C96.961212,33.852894 96.949165,63.985176 97.084610,94.116470 
	C97.097107,96.897446 96.114738,97.056786 93.889801,97.042839 
	C80.239418,96.957321 66.588234,97.000000 52.468658,97.000000 
	C49.421589,94.192932 50.992260,90.682671 50.346344,87.102684 
	C50.257851,85.784012 50.495914,84.979965 51.233665,83.944481 
	C57.732368,77.856956 62.944016,71.323380 65.957733,63.260086 
	C66.939629,60.632996 67.598122,57.896393 67.652672,54.690399 
	C68.031258,50.719872 68.178520,47.112560 67.704475,43.147190 
	C66.900620,33.749336 63.525078,25.630516 58.157230,18.478865 
	C55.600906,15.073043 53.471256,11.230225 49.735199,8.441671 
	C49.231663,8.355289 49.028217,8.337021 48.208939,8.316874 
	C42.361378,10.002746 40.272243,14.862310 37.611591,18.854252 
	C33.358540,25.235355 30.929296,32.460629 30.331459,40.559738 
	C29.899086,44.797550 29.756243,48.679893 30.306368,52.933735 
	C30.902739,61.149235 33.942303,67.961960 38.817169,74.070091 
	C41.808846,77.818604 44.912064,81.446899 48.622025,85.060699 
	C49.157452,89.066895 50.424034,92.721222 48.300575,96.660172 
z"/>
<path fill="#A5A787" opacity="1.000000" stroke="none" 
	d="
M48.333332,97.000000 
	C48.446106,93.215599 47.698891,89.546440 46.820557,85.465126 
	C46.033321,83.506271 45.812458,81.903786 46.260979,79.848892 
	C47.076900,78.522530 47.939304,77.844635 49.440170,77.426338 
	C52.642933,78.431282 53.195438,80.694229 53.060318,83.708588 
	C52.887703,84.683121 52.766922,85.256454 52.360634,85.924988 
	C50.361000,89.354942 52.750565,93.231674 50.344170,96.760223 
	C49.555553,97.000000 49.111111,97.000000 48.333332,97.000000 
z"/>
<path fill="#CDCCBD" opacity="1.000000" stroke="none" 
	d="
M50.333332,97.000000 
	C51.927315,93.802094 50.096066,89.977005 51.894646,86.373840 
	C52.051140,89.374847 52.027157,92.729515 52.001587,96.542084 
	C51.555553,97.000000 51.111111,97.000000 50.333332,97.000000 
z"/>
<path fill="#59AB51" opacity="1.000000" stroke="none" 
	d="
M48.263065,79.630173 
	C48.000351,81.561989 47.941914,83.070869 46.873730,84.712616 
	C38.506786,79.882446 33.437939,72.252548 29.994293,63.429916 
	C28.933548,60.712280 27.589663,57.985447 27.952522,54.481636 
	C27.006432,49.657787 27.681314,45.197487 27.750563,40.325409 
	C28.641033,29.573412 32.939594,20.769495 38.868927,12.472091 
	C41.545425,8.726652 45.368824,6.360046 48.660984,3.062185 
	C49.176933,3.243257 49.334053,3.367477 49.651356,3.745866 
	C49.811543,4.000035 49.941116,4.455672 49.985725,4.688285 
	C50.799133,7.341884 51.967278,9.644314 52.228943,12.699458 
	C51.578236,24.423042 49.672817,35.608200 50.499996,47.405029 
	C50.499996,52.242737 50.499996,56.611164 50.499996,61.446976 
	C50.116009,67.712837 51.748196,73.749962 48.263065,79.630173 
z"/>
<path fill="#4A9D4B" opacity="1.000000" stroke="none" 
	d="
M49.735935,13.631174 
	C49.951782,10.736145 49.982578,8.286867 50.021854,5.379243 
	C55.719448,11.657514 62.174328,17.839819 65.638779,26.198740 
	C67.632973,31.010254 69.761703,35.793579 70.049576,41.530804 
	C70.991409,46.018406 70.313766,50.142120 70.239456,54.669899 
	C68.982079,67.214874 63.251785,76.690765 53.362602,84.064888 
	C50.934162,82.951241 50.367489,80.933723 49.945282,78.455139 
	C48.907108,73.108368 49.798447,68.065315 49.500004,62.579433 
	C49.500004,57.671135 49.500004,53.237457 49.500004,48.325035 
	C49.533230,36.589859 49.433105,25.333229 49.735935,13.631174 
z"/>
<path fill="#9BCD97" opacity="1.000000" stroke="none" 
	d="
M27.574070,40.115250 
	C27.966202,44.303635 27.984503,48.717712 27.977543,53.600643 
	C26.001757,49.586426 27.315144,44.924564 27.574070,40.115250 
z"/>
<path fill="#93C493" opacity="1.000000" stroke="none" 
	d="
M70.409012,54.878689 
	C70.023109,51.025650 70.012329,46.951942 70.030304,42.411736 
	C72.040916,46.083576 70.644470,50.414604 70.409012,54.878689 
z"/>
<path fill="#4A9D4B" opacity="1.000000" stroke="none" 
	d="
M49.825104,3.756133 
	C49.605278,3.833005 49.419121,3.645967 49.136444,3.278979 
	C49.395916,3.035239 49.668865,3.166304 49.825104,3.756133 
z"/>
<path fill="#84BB7E" opacity="1.000000" stroke="none" 
	d="
M49.671371,61.712112 
	C49.897266,67.093025 49.931107,72.121918 49.933464,77.625916 
	C49.413330,78.619987 48.924679,79.138939 48.254341,79.857178 
	C48.996117,74.401703 49.076401,68.697876 49.084068,62.528259 
	C49.227695,61.831852 49.353504,61.595974 49.671371,61.712112 
z"/>
<path fill="#7DBC78" opacity="1.000000" stroke="none" 
	d="
M49.713882,13.521482 
	C49.921993,24.466412 49.923000,35.747402 49.899971,47.493935 
	C49.744080,48.186977 49.612228,48.414471 49.282837,48.300587 
	C49.201500,36.591690 48.415752,25.213017 49.713882,13.521482 
z"/>
<path fill="#72B76B" opacity="1.000000" stroke="none" 
	d="
M49.059631,48.427422 
	C49.085297,47.959213 49.481319,47.965439 49.678627,47.962463 
	C49.898155,52.348007 49.920376,56.736526 49.903015,61.594589 
	C49.863426,62.064129 49.481842,62.057369 49.291862,62.062553 
	C49.079243,57.677032 49.056606,53.286331 49.059631,48.427422 
z"/>
</svg>